<svg xmlns="http://www.w3.org/2000/svg" xmlns:xlink="http://www.w3.org/1999/xlink" width="329" height="400">
  <defs>
    <radialGradient gradientUnits="userSpaceOnUse" r="819.2" cx="0" cy="0" spreadMethod="pad" gradientTransform="matrix(0.26910400390625 0 0 0.26934814453125 167.3 202.3)" id="gradient0">
      <stop offset="0" stop-color="#FFFFFF"/>
      <stop offset="0.19215686274509805" stop-color="#878787"/>
      <stop offset="1" stop-color="#424242"/>
    </radialGradient>
  </defs>
  <g>
    <path stroke="none" fill="#000000" d="M194.1 11.4 L194 11.3 Q192.85 10.15 192.85 8.6 192.85 7.05 194 5.9 195.1 4.75 196.7 4.8 198.25 4.75 199.35 5.9 200.5 7.05 200.5 8.6 200.5 10.15 199.35 11.3 198.25 12.4 196.7 12.4 195.2 12.4 194.1 11.4 M132.15 7.85 Q131.15 8.6 129.9 8.6 128.35 8.6 127.25 7.5 126.1 6.35 126.1 4.8 126.1 3.2 127.25 2.1 128.35 0.95 129.9 1 131.45 0.95 132.6 2.1 133.75 3.2 133.75 4.8 133.75 6.35 132.6 7.5 L132.15 7.85"/>
    <path stroke="none" fill="#2D2D2D" d="M190.35 36.85 L132.9 36.85 Q139.65 30.75 146.45 27.55 162.85 19.65 179.35 28.8 184.85 31.85 190.35 36.85"/>
    <path stroke="none" fill="#5B2E00" d="M89.7 363.2 L129 363.2 82.65 397 63.5 397 89.7 363.2 M199.05 363.2 L238.35 363.2 264.55 397 245.4 397 199.05 363.2"/>
    <path stroke="none" fill="url(#gradient0)" d="M190.35 36.85 L295.85 36.85 Q309.15 36.85 318.6 46.3 328 55.75 328 69.1 L328 331 Q328 344.3 318.6 353.75 309.15 363.2 295.85 363.2 L238.35 363.2 199.05 363.2 129 363.2 89.7 363.2 34.2 363.2 Q20.85 363.2 11.45 353.75 2 344.3 2 331 L2 69.1 Q2 55.75 11.45 46.3 20.85 36.85 34.2 36.85 L132.9 36.85 190.35 36.85 M294.6 71.3 Q291.5 68.15 287.05 68.15 L44 68.15 Q39.55 68.15 36.4 71.3 33.25 74.45 33.3 78.9 L33.3 322.2 Q33.25 326.65 36.4 329.75 39.55 332.9 44 332.95 L287.05 332.95 Q291.5 332.9 294.6 329.75 297.75 326.65 297.75 322.2 L297.75 78.9 Q297.75 74.45 294.6 71.3"/>
    <path fill="none" stroke="#000000" stroke-width="2" stroke-linecap="round" stroke-linejoin="round" d="M238.35 363.2 L295.85 363.2 Q309.15 363.2 318.6 353.75 328 344.3 328 331 L328 69.1 Q328 55.75 318.6 46.3 309.15 36.85 295.85 36.85 L190.35 36.85 132.9 36.85 34.2 36.85 Q20.85 36.85 11.45 46.3 2 55.75 2 69.1 L2 331 Q2 344.3 11.45 353.75 20.85 363.2 34.2 363.2 L89.7 363.2 129 363.2 199.05 363.2 238.35 363.2 264.55 397 245.4 397 199.05 363.2 M294.6 71.3 Q291.5 68.15 287.05 68.15 L44 68.15 Q39.55 68.15 36.4 71.3 33.25 74.45 33.3 78.9 L33.3 322.2 Q33.25 326.65 36.4 329.75 39.55 332.9 44 332.95 L287.05 332.95 Q291.5 332.9 294.6 329.75 297.75 326.65 297.75 322.2 L297.75 78.9 Q297.75 74.45 294.6 71.3 M194.1 11.4 L179.35 28.8 Q184.85 31.85 190.35 36.85 M132.15 7.85 L146.45 27.55 Q162.85 19.65 179.35 28.8 M132.9 36.85 Q139.65 30.75 146.45 27.55 M89.7 363.2 L63.5 397 82.65 397 129 363.2"/>
  </g>
</svg>
