<?xml version="1.0" encoding="UTF-8" standalone="no"?>
<svg
   width="256"
   height="256"
   viewBox="0 0 256 256"
   version="1.1"
   id="svg1"
   xmlns="http://www.w3.org/2000/svg"
   xmlns:svg="http://www.w3.org/2000/svg">
  <defs
     id="defs1" />
  <rect
     style="fill:#304050;fill-opacity:1;stroke-width:13.4737"
     id="rect1"
     width="256"
     height="256"
     x="0"
     y="0"
     rx="53.894737"
     ry="53.894737" />
  <path
     fill="currentColor"
     d="m 202.32206,74.341962 c 16.24411,18.383394 25.19502,42.078328 25.16248,66.610328 -0.0358,55.67863 -45.16289,100.80631 -100.84152,100.84153 -55.683627,-0.0282 -100.819066,-45.1579 -100.854302,-100.84153 0,-53.505398 41.779942,-97.341768 94.467882,-100.637159 V 26.226693 H 99.986116 c -8.238478,0 -8.212933,-12.772836 0,-12.772836 h 53.313804 c 8.23849,0 8.22571,12.772836 0,12.772836 h -20.27048 v 14.088438 c 22.30625,1.397007 43.5108,10.18804 60.26222,24.983665 l 14.49718,-14.484395 c 2.52174,-2.424951 6.50863,-2.424951 9.03039,0 2.54179,2.337429 2.36298,6.667419 0,9.030395 z m 12.38966,66.610328 c -0.0358,-48.624394 -39.4443,-88.033469 -88.0687,-88.068691 -48.629385,0.02816 -88.046237,39.439313 -88.081467,88.068691 0.03533,48.62939 39.452082,88.04053 88.081467,88.0687 48.6244,-0.0358 88.03346,-39.44429 88.0687,-88.0687"
     id="path1"
     style="fill:#0c151c;fill-opacity:1;stroke-width:12.7728" />
  <g
     fill="currentColor"
     id="g2"
     transform="matrix(3.9501178,0,0,3.9501178,28.149647,46.902217)"
     style="fill:#0c151c;fill-opacity:1">
    <path
       d="m 30.5,13 a 4.5,4.5 0 1 0 0,-9 4.5,4.5 0 0 0 0,9 m -9.04,4.282 c -1.247,0.31 -2.098,0.776 -2.785,1.354 -1.03,0.868 -1.862,2.12 -2.986,4.088 a 2.0001221,2.0001221 0 1 1 -3.473,-1.985 c 1.119,-1.957 2.25,-3.788 3.883,-5.162 1.704,-1.436 3.79,-2.248 6.603,-2.561 1.176,-0.13 2.47,-0.104 3.683,0.437 1.273,0.569 2.203,1.588 2.837,2.95 0.854,1.833 1.489,2.924 1.997,3.557 0.245,0.303 0.416,0.444 0.513,0.507 0.077,0.05 0.11,0.054 0.122,0.056 h 0.001 c 0.087,0.01 0.369,0 1.197,-0.367 0.361,-0.16 0.755,-0.352 1.237,-0.587 l 0.115,-0.056 a 54,54 0 0 1 1.784,-0.84 2,2 0 0 1 1.625,3.655 49,49 0 0 0 -1.653,0.779 l -0.131,0.064 c -0.461,0.225 -0.925,0.452 -1.36,0.644 -0.9,0.398 -2.05,0.83 -3.297,0.679 -1.316,-0.16 -2.33,-0.903 -3.165,-1.9 l -2.733,5.273 3.78,4.918 a 2,2 0 0 1 0.403,1.012 l 0.832,7.996 a 2,2 0 1 1 -3.978,0.414 l -0.774,-7.433 -2.296,-2.988 -0.02,0.037 -0.084,-0.172 -4.242,-5.52 a 2,2 0 0 1 -0.282,-1.934 z"
       id="path1-8"
       style="fill:#0c151c;fill-opacity:1" />
    <path
       d="m 18.432,29.007 -1.472,3.96 -5.8,-0.46 a 2,2 0 1 0 -0.318,3.987 l 7.308,0.58 a 2,2 0 0 0 2.033,-1.296 l 1.125,-3.028 z"
       id="path2"
       style="fill:#0c151c;fill-opacity:1" />
  </g>
</svg>
