<?xml version="1.0" encoding="UTF-8" standalone="no"?>
<svg
   xmlns="http://www.w3.org/2000/svg"
   version="1.1"
   viewBox="0 0 400 400"
>
<g transform="translate(-7.1388535,-103.12641)">
	<g>
		<path d="m 387.15091,123.11716 c -26.65085,-26.650859 -70.01355,-26.650124 -96.66366,-1e-5 L 45.646613,367.95779 c -1.879893,1.87989 -3.468431,4.38348 -4.347618,7.14988 -25.464199,80.2578 -29.62075,93.35995 -33.3073313,104.97897 -4.3227326,13.6241 8.5114813,26.52273 22.1831633,22.18463 12.70904,-4.03138 93.661553,-29.7086 104.984833,-33.30147 2.73932,-0.86821 5.25389,-2.45016 7.15135,-4.34762 L 387.15163,219.78154 c 26.64939,-26.65084 26.65011,-70.01355 -7.2e-4,-96.66438 z M 276.36169,166.52452 297.55587,187.7187 93.974786,391.29978 72.780607,370.10561 Z M 47.803849,474.81966 35.444001,462.45981 55.113424,402.4137 107.82069,455.12096 Z m 92.324931,-37.36588 -21.16709,-21.1671 203.58108,-203.58108 21.16709,21.16709 z M 301.3486,141.53761 c 46.54842,-46.54842 113.89659,20.79975 67.34817,67.34818 z"
      style="stroke-width: 1" />
	</g>
</g>
</svg>
